<?xml version="1.0" standalone="no"?>
<!DOCTYPE svg PUBLIC "-//W3C//DTD SVG 20010904//EN"
 "http://www.w3.org/TR/2001/REC-SVG-20010904/DTD/svg10.dtd">
<svg version="1.0" xmlns="http://www.w3.org/2000/svg"
 width="1252.000000pt" height="1280.000000pt" viewBox="0 0 1252.000000 1280.000000"
 preserveAspectRatio="xMidYMid meet">
<metadata>
Created by potrace 1.15, written by Peter Selinger 2001-2017
</metadata>
<g transform="translate(0.000000,1280.000000) scale(0.100000,-0.100000)"
fill="#000000" stroke="none">
<path d="M6075 12794 c-27 -2 -120 -8 -205 -14 -174 -13 -403 -40 -590 -71
-466 -76 -1046 -252 -1500 -454 -259 -116 -636 -320 -863 -468 -106 -69 -422
-301 -532 -391 -216 -175 -590 -533 -747 -715 -206 -238 -542 -682 -598 -791
-20 -40 -9 -25 130 170 248 347 434 566 724 855 388 387 766 676 1266 967 125
73 492 257 650 325 517 225 1061 366 1745 455 203 26 730 36 1040 19 1009 -56
2082 -420 2949 -1000 392 -262 585 -420 912 -746 366 -365 525 -558 799 -970
209 -314 331 -540 511 -944 235 -526 402 -1152 473 -1771 59 -512 54 -1066
-14 -1570 -130 -967 -481 -1916 -1002 -2710 -234 -355 -461 -636 -778 -959
-339 -346 -655 -607 -1020 -846 -828 -543 -1737 -869 -2750 -987 -153 -18
-1038 -18 -1190 0 -802 94 -1441 288 -2160 656 -287 147 -442 242 -755 462
-407 285 -813 662 -1155 1071 -765 915 -1211 1988 -1361 3273 -10 85 -20 144
-22 130 -12 -77 76 -660 144 -960 31 -137 96 -376 140 -515 77 -243 227 -632
295 -765 238 -462 297 -565 438 -770 108 -158 318 -436 414 -549 113 -133 557
-577 697 -697 258 -221 580 -452 903 -647 180 -110 649 -344 832 -417 266
-107 628 -223 930 -299 183 -46 564 -107 830 -133 179 -17 951 -17 1105 0 796
89 1503 288 2140 603 577 284 1039 598 1480 1004 624 574 1064 1151 1415 1855
392 784 590 1446 689 2305 50 423 48 1059 -4 1462 -28 217 -74 487 -115 678
-187 869 -623 1792 -1184 2505 -287 366 -676 755 -1026 1026 -999 776 -2055
1198 -3305 1319 -153 15 -661 28 -775 19z"/>
<path d="M5740 12579 c-263 -17 -686 -80 -955 -140 -712 -161 -1364 -436
-1960 -827 -352 -231 -628 -454 -929 -750 -445 -440 -797 -901 -1081 -1417
-109 -198 -133 -237 -144 -230 -5 2 -11 -2 -14 -9 -3 -8 -1 -16 6 -19 7 -2
-20 -72 -70 -183 -44 -98 -89 -202 -99 -231 -15 -43 -21 -50 -33 -40 -12 10
-13 8 -8 -15 8 -31 -27 -136 -49 -145 -18 -7 -53 -103 -56 -155 -2 -24 -8 -47
-15 -53 -6 -5 -25 -59 -43 -120 -17 -60 -40 -137 -50 -170 -10 -33 -21 -82
-26 -110 -4 -27 -13 -64 -20 -81 -40 -96 -158 -813 -163 -989 -3 -106 -19
-334 -25 -343 -4 -7 0 -15 8 -18 12 -5 16 -22 16 -75 0 -73 -16 -95 -23 -31
l-4 37 -1 -43 c-1 -23 5 -59 14 -80 10 -24 15 -64 14 -112 -1 -41 1 -104 4
-140 3 -36 11 -130 17 -210 42 -581 185 -1225 394 -1770 194 -507 438 -957
729 -1345 211 -281 304 -390 540 -633 455 -468 1017 -878 1604 -1171 659 -329
1238 -507 1962 -603 229 -31 244 -32 590 -30 711 4 995 35 1520 167 891 225
1712 641 2400 1218 942 789 1601 1785 1973 2987 126 404 224 945 257 1410 16
228 13 810 -5 991 -107 1063 -450 2033 -1019 2874 -405 598 -902 1101 -1553
1568 -293 211 -820 490 -1218 644 -392 152 -881 282 -1295 342 -366 54 -835
73 -1190 50z m730 -120 c320 -27 578 -72 920 -160 479 -123 796 -242 1210
-452 796 -405 1446 -949 1991 -1667 450 -593 769 -1228 974 -1942 113 -392
163 -666 217 -1188 16 -153 15 -770 -1 -957 -57 -640 -203 -1270 -427 -1836
-64 -161 -239 -527 -340 -710 -428 -773 -1042 -1459 -1774 -1978 -715 -508
-1558 -863 -2385 -1005 -412 -70 -472 -75 -985 -77 -500 -2 -531 0 -930 64
-678 109 -1363 359 -2000 729 -268 156 -648 428 -892 639 -309 267 -653 646
-912 1003 -225 312 -481 777 -636 1158 -177 434 -327 1010 -391 1497 -42 324
-62 933 -40 1260 42 640 235 1450 488 2042 52 121 200 420 275 555 303 542
677 1018 1153 1467 681 643 1589 1148 2480 1379 424 111 852 177 1215 189 261
9 621 4 790 -10z m-6081 -3970 c-13 -34 -24 -58 -26 -52 -5 13 37 126 44 120
2 -3 -6 -33 -18 -68z m-352 -1801 c-3 -8 -6 -5 -6 6 -1 11 2 17 5 13 3 -3 4
-12 1 -19z"/>
<path d="M5475 12359 c-33 -4 -143 -17 -245 -29 -197 -22 -443 -62 -525 -84
-27 -8 -88 -22 -135 -31 -323 -62 -870 -259 -1251 -450 -1273 -639 -2275
-1736 -2809 -3075 -161 -404 -278 -831 -354 -1300 -43 -261 -52 -348 -67 -645
-32 -626 22 -1211 162 -1770 127 -506 238 -813 446 -1230 155 -310 280 -513
473 -775 424 -571 905 -1025 1490 -1406 754 -490 1646 -809 2530 -903 306 -33
525 -36 955 -10 835 49 1758 340 2515 792 205 123 520 344 705 496 667 548
1176 1184 1559 1949 597 1191 782 2590 516 3889 -30 142 -101 415 -155 588
-191 615 -492 1202 -888 1731 -451 605 -1084 1168 -1699 1512 -178 100 -531
276 -662 329 -486 199 -973 328 -1486 392 -256 32 -923 51 -1075 30z m890
-124 c1466 -169 2811 -908 3717 -2040 361 -452 625 -905 847 -1452 203 -502
332 -1043 385 -1618 47 -506 18 -1098 -80 -1610 -173 -904 -571 -1792 -1123
-2505 -299 -387 -703 -786 -1097 -1082 -139 -105 -433 -300 -584 -388 -663
-385 -1450 -638 -2260 -727 -231 -25 -837 -25 -1055 0 -616 72 -1135 213
-1689 459 -681 301 -1281 725 -1793 1266 -400 424 -652 782 -918 1307 -300
590 -498 1279 -569 1980 -111 1078 60 2129 507 3122 193 428 417 792 746 1210
155 196 650 697 841 850 407 326 820 577 1285 781 240 106 333 141 505 195
386 121 676 185 1105 242 155 21 212 23 635 24 355 1 496 -3 595 -14z m4055
-9019 c0 -3 -4 -8 -10 -11 -5 -3 -10 -1 -10 4 0 6 5 11 10 11 6 0 10 -2 10 -4z"/>
<path d="M5290 12139 c-296 -24 -625 -75 -867 -134 -871 -215 -1591 -579
-2288 -1156 -128 -106 -572 -551 -648 -649 -32 -41 -80 -102 -108 -135 -58
-69 -224 -301 -328 -457 -389 -585 -695 -1386 -825 -2159 -66 -388 -68 -422
-73 -914 -4 -446 -4 -467 22 -690 50 -444 122 -780 252 -1180 255 -786 625
-1410 1196 -2019 713 -759 1703 -1324 2737 -1561 375 -86 672 -126 1002 -132
760 -16 1326 73 2022 319 605 213 1186 549 1696 978 171 144 556 528 688 686
431 517 743 1057 977 1689 175 473 251 789 326 1350 31 230 40 958 15 1181
-62 546 -164 994 -326 1429 -268 717 -679 1372 -1195 1904 -324 334 -636 591
-975 804 -425 267 -753 426 -1181 572 -444 151 -877 241 -1325 275 -161 12
-639 11 -794 -1z m750 -119 c523 -47 926 -140 1430 -330 704 -266 1339 -683
1880 -1236 508 -519 881 -1091 1151 -1762 259 -646 389 -1329 389 -2046 0
-493 -48 -878 -171 -1371 -201 -810 -592 -1580 -1131 -2227 -130 -157 -496
-523 -658 -660 -813 -685 -1774 -1111 -2820 -1249 -283 -38 -947 -43 -1210 -9
-775 99 -1397 306 -2070 690 -244 139 -524 336 -780 549 -137 113 -462 435
-582 576 -623 731 -1026 1593 -1192 2550 -66 385 -86 612 -86 999 0 389 17
608 70 923 111 653 274 1155 544 1678 278 538 575 942 1016 1385 527 529 1076
891 1798 1184 490 199 1109 336 1677 370 107 7 627 -3 745 -14z"/>
<path d="M5125 11910 c-146 -9 -265 -24 -455 -56 -529 -90 -932 -218 -1420
-448 -261 -124 -356 -178 -643 -368 -865 -572 -1579 -1451 -1965 -2419 -190
-475 -309 -948 -378 -1494 -21 -169 -30 -720 -15 -990 45 -846 307 -1690 754
-2425 212 -349 499 -706 790 -986 970 -930 2264 -1463 3552 -1464 849 0 1575
173 2355 561 615 306 1131 701 1595 1219 684 766 1139 1725 1304 2750 65 399
82 732 62 1160 -43 920 -349 1868 -846 2620 -333 504 -796 1001 -1235 1326
-425 314 -894 568 -1325 717 -450 156 -704 219 -1070 268 -247 33 -758 47
-1060 29z m953 -144 c400 -54 671 -122 1033 -256 534 -199 970 -436 1359 -739
305 -237 658 -586 895 -884 303 -381 587 -884 760 -1347 219 -587 320 -1110
332 -1720 10 -539 -33 -941 -153 -1429 -104 -422 -300 -923 -508 -1296 -84
-152 -283 -456 -391 -600 -270 -359 -644 -740 -990 -1010 -309 -242 -790 -523
-1140 -667 -288 -119 -644 -234 -905 -292 -553 -122 -1199 -146 -1755 -65
-899 131 -1769 512 -2460 1078 -421 344 -743 700 -1031 1136 -403 612 -673
1336 -783 2100 -39 270 -45 382 -46 770 0 482 21 712 101 1085 210 980 610
1777 1244 2484 813 906 1860 1464 3076 1641 257 38 373 44 794 40 339 -2 394
-5 568 -29z"/>
<path d="M4920 11674 c-834 -79 -1622 -357 -2315 -817 -418 -278 -867 -695
-1182 -1099 -162 -207 -361 -518 -491 -766 -76 -147 -101 -202 -204 -452 -151
-368 -276 -825 -332 -1220 -44 -305 -51 -409 -49 -770 0 -195 6 -398 12 -450
41 -372 51 -439 97 -650 30 -141 85 -351 126 -485 83 -271 317 -792 459 -1025
22 -36 64 -103 93 -151 158 -258 507 -669 800 -940 143 -134 317 -270 541
-426 664 -461 1452 -750 2310 -845 161 -18 751 -18 900 0 867 104 1598 368
2273 819 256 171 292 198 497 374 984 841 1621 2048 1769 3349 63 553 38 1058
-84 1660 -79 390 -230 825 -411 1180 -179 353 -337 600 -565 885 -593 743
-1391 1304 -2264 1594 -359 119 -769 205 -1100 231 -113 9 -795 11 -880 4z
m650 -114 c323 -13 505 -40 840 -125 372 -93 588 -171 895 -319 523 -254 935
-546 1340 -951 286 -286 488 -544 720 -920 208 -336 435 -880 534 -1280 126
-508 158 -811 148 -1405 -6 -364 -20 -501 -88 -828 -99 -481 -209 -807 -414
-1229 -261 -536 -550 -938 -1005 -1394 -430 -431 -962 -783 -1560 -1032 -305
-127 -712 -245 -1035 -302 -277 -48 -772 -75 -1045 -56 -573 39 -1084 161
-1603 382 -1345 574 -2355 1744 -2722 3153 -73 280 -119 525 -152 801 -26 218
-25 826 0 1045 116 988 447 1836 993 2546 399 519 862 936 1399 1259 624 375
1453 627 2150 654 283 11 358 11 605 1z"/>
<path d="M4745 11434 c-248 -27 -559 -86 -786 -149 -783 -220 -1439 -598
-2028 -1170 -231 -224 -456 -488 -599 -702 -438 -654 -684 -1286 -817 -2098
-55 -340 -60 -1051 -10 -1400 80 -552 211 -980 450 -1472 249 -513 558 -929
995 -1339 811 -761 1915 -1216 3010 -1241 302 -6 544 7 805 46 235 35 291 47
525 111 359 100 569 178 840 314 540 271 947 568 1350 982 766 788 1228 1782
1356 2919 22 192 29 608 15 805 -69 945 -385 1808 -929 2540 -134 180 -213
271 -402 463 -207 212 -359 350 -519 470 -723 550 -1567 869 -2449 927 -213
14 -650 11 -807 -6z m887 -125 c198 -22 484 -73 643 -114 141 -37 438 -137
579 -196 268 -113 514 -247 799 -437 431 -285 755 -595 1096 -1042 182 -239
279 -397 437 -712 122 -244 157 -326 229 -543 126 -377 192 -689 237 -1105 19
-185 16 -703 -5 -900 -85 -771 -313 -1427 -721 -2080 -525 -839 -1387 -1542
-2313 -1883 -570 -211 -1015 -287 -1672 -287 -299 0 -679 52 -1000 136 -1277
337 -2331 1185 -2910 2342 -159 319 -261 595 -357 972 -80 313 -116 570 -134
942 -19 400 17 854 96 1213 163 737 443 1348 890 1941 144 191 496 555 701
726 656 546 1415 884 2268 1008 295 44 842 53 1137 19z"/>
<path d="M4650 11190 c-318 -21 -886 -158 -1204 -291 -304 -128 -533 -249
-786 -417 -222 -146 -324 -226 -522 -403 -262 -235 -497 -493 -641 -704 -207
-303 -283 -429 -382 -630 -187 -381 -258 -572 -358 -970 -103 -409 -120 -522
-138 -901 -16 -360 4 -743 56 -1039 150 -862 538 -1653 1122 -2287 350 -380
811 -719 1297 -954 413 -200 874 -338 1344 -404 154 -21 508 -41 632 -35 462
22 747 67 1121 176 333 96 738 269 998 427 559 337 1003 734 1373 1227 548
732 874 1639 908 2535 30 769 -79 1373 -368 2040 -125 288 -201 430 -364 673
-198 297 -339 468 -611 738 -168 167 -274 257 -468 399 -596 433 -1207 686
-1919 796 -165 26 -197 27 -570 30 -217 1 -451 -2 -520 -6z m900 -124 c405
-51 690 -124 1062 -274 373 -151 622 -291 955 -540 715 -534 1241 -1261 1518
-2097 246 -745 292 -1522 134 -2290 -123 -596 -332 -1093 -682 -1620 -160
-241 -288 -396 -536 -649 -489 -498 -1075 -861 -1766 -1095 -202 -68 -546
-145 -790 -176 -159 -20 -638 -36 -735 -25 -41 5 -133 14 -205 21 -737 65
-1538 389 -2162 876 -376 293 -756 715 -1005 1118 -311 503 -542 1159 -613
1745 -41 334 -45 792 -10 1080 90 750 331 1425 718 2005 173 259 331 450 566
686 360 359 689 598 1132 820 478 239 994 383 1559 433 113 10 741 -3 860 -18z"/>
<path d="M4655 10959 c-592 -44 -1230 -242 -1728 -536 -388 -229 -665 -450
-975 -776 -331 -349 -500 -592 -716 -1032 -272 -551 -404 -1032 -447 -1624
-15 -208 -6 -720 15 -880 93 -693 303 -1264 672 -1826 385 -587 926 -1071
1554 -1389 236 -120 364 -174 570 -243 510 -169 1029 -238 1545 -204 414 27
670 78 1082 217 484 162 913 406 1354 769 197 163 479 460 661 695 75 97 253
367 320 485 288 507 473 1072 543 1660 34 281 29 783 -11 1070 -102 734 -411
1474 -848 2030 -246 312 -658 698 -951 891 -287 188 -712 403 -970 489 -252
85 -563 156 -800 184 -262 31 -612 39 -870 20z m832 -148 c280 -38 453 -80
758 -183 439 -147 806 -352 1195 -664 438 -352 773 -753 1029 -1233 157 -294
242 -507 347 -866 160 -550 189 -1293 73 -1877 -149 -754 -473 -1419 -960
-1972 -595 -675 -1319 -1122 -2137 -1317 -312 -75 -540 -105 -867 -115 -262
-7 -457 9 -750 62 -258 47 -294 56 -490 120 -511 168 -902 377 -1300 695 -782
625 -1303 1527 -1464 2539 -38 241 -46 358 -46 680 0 319 6 406 47 665 202
1302 1016 2444 2173 3051 415 217 948 377 1410 423 61 6 126 13 145 15 19 2
181 3 360 1 262 -2 355 -7 477 -24z m2063 -7271 c0 -5 -7 -10 -16 -10 -8 0
-12 5 -9 10 3 6 10 10 16 10 5 0 9 -4 9 -10z"/>
<path d="M4670 10714 c-105 -7 -316 -33 -440 -55 -543 -97 -1051 -303 -1505
-612 -501 -339 -936 -814 -1238 -1348 -162 -287 -318 -680 -408 -1029 -139
-542 -154 -1231 -39 -1810 153 -771 543 -1491 1101 -2036 372 -363 708 -584
1214 -802 198 -85 319 -126 519 -177 209 -53 350 -79 511 -95 66 -6 162 -16
214 -21 136 -15 594 6 791 37 175 28 452 94 625 151 325 105 729 309 1027 517
418 292 851 741 1104 1146 311 495 493 973 588 1540 38 226 47 360 47 687 0
322 -14 466 -72 758 -186 933 -669 1727 -1413 2321 -560 448 -1209 719 -1938
809 -115 14 -561 26 -688 19z m610 -140 c920 -107 1712 -506 2325 -1171 493
-533 782 -1080 939 -1778 105 -470 118 -1008 35 -1504 -89 -531 -308 -1078
-619 -1541 -240 -358 -630 -760 -980 -1010 -319 -229 -710 -421 -1102 -544
-857 -267 -1806 -203 -2613 177 -348 164 -584 314 -860 546 -568 480 -983
1125 -1194 1856 -64 223 -102 415 -132 670 -17 145 -17 653 -1 805 99 883 431
1632 1015 2289 402 451 1026 853 1626 1047 482 155 1070 215 1561 158z"/>
<path d="M4674 10459 c-1244 -58 -2367 -754 -3003 -1862 -108 -188 -224 -440
-285 -623 -110 -328 -179 -639 -206 -929 -13 -142 -13 -556 0 -710 23 -268
110 -661 202 -915 249 -685 672 -1261 1245 -1698 628 -478 1461 -745 2243
-718 590 19 1141 174 1670 469 444 248 863 620 1183 1052 373 504 620 1093
708 1690 40 272 44 843 8 1100 -28 208 -101 505 -173 708 -252 715 -723 1340
-1344 1786 -279 200 -577 351 -932 473 -261 90 -631 161 -902 173 -68 3 -152
7 -188 9 -36 1 -138 -1 -226 -5z m704 -163 c424 -78 659 -153 987 -316 444
-220 821 -515 1124 -878 425 -511 659 -1014 798 -1717 l28 -140 0 -450 0 -450
-33 -170 c-77 -396 -160 -648 -332 -1001 -195 -403 -457 -752 -813 -1083 -516
-481 -1131 -787 -1819 -906 -198 -34 -632 -54 -828 -37 -427 37 -880 167
-1284 369 -470 234 -962 659 -1262 1089 -323 463 -526 964 -621 1535 -27 160
-28 174 -28 564 0 389 1 405 28 565 110 661 366 1247 764 1745 102 129 353
383 504 511 314 268 720 494 1141 635 239 80 404 117 733 163 17 2 197 3 400
1 353 -2 377 -3 513 -29z"/>
<path d="M4480 10194 c-381 -47 -760 -154 -1082 -304 -369 -172 -670 -382
-959 -670 -409 -408 -694 -878 -877 -1450 -129 -400 -157 -621 -149 -1165 4
-290 7 -334 31 -465 72 -402 183 -730 359 -1065 174 -331 370 -591 655 -867
200 -193 342 -302 576 -443 427 -256 746 -371 1256 -451 137 -21 187 -24 435
-24 174 0 331 6 416 15 588 62 1162 304 1689 711 138 106 464 429 578 572 299
375 516 809 660 1317 80 280 118 635 109 995 -8 311 -46 559 -127 841 -184
639 -535 1194 -1036 1643 -459 411 -1102 704 -1739 792 -106 15 -711 28 -795
18z m625 -134 c655 -62 1232 -296 1735 -704 181 -147 483 -471 600 -646 313
-464 502 -951 577 -1480 13 -98 17 -193 17 -445 0 -358 -8 -441 -69 -716 -185
-825 -669 -1559 -1355 -2049 -405 -290 -862 -480 -1375 -571 -173 -31 -707
-40 -888 -14 -359 49 -705 156 -1012 312 -339 171 -567 335 -831 598 -544 542
-852 1169 -960 1955 -22 160 -25 632 -6 795 54 439 158 781 357 1175 175 345
348 583 625 861 144 145 266 249 401 345 411 292 949 504 1450 574 190 26 516
30 734 10z"/>
<path d="M4495 9929 c-299 -29 -644 -118 -940 -244 -647 -275 -1213 -810
-1551 -1468 -182 -355 -290 -710 -341 -1124 -23 -188 -23 -597 1 -778 88 -679
399 -1340 851 -1804 288 -296 512 -464 833 -625 360 -180 689 -280 1067 -322
224 -25 606 -16 805 19 330 58 583 143 889 296 247 124 409 227 601 385 112
91 390 372 462 466 215 281 308 431 431 700 146 317 220 578 279 975 9 60 13
190 12 390 0 343 -14 464 -85 752 -258 1051 -1000 1882 -1984 2221 -229 79
-498 137 -744 162 -120 12 -456 11 -586 -1z m525 -129 c719 -51 1352 -340
1866 -854 149 -150 252 -273 376 -452 43 -61 84 -116 92 -124 9 -7 16 -19 16
-26 0 -8 29 -73 65 -144 150 -299 257 -621 305 -914 24 -147 44 -504 35 -641
-15 -240 -55 -483 -115 -711 -17 -61 -30 -123 -30 -138 0 -15 -8 -38 -17 -52
-9 -14 -48 -99 -87 -188 -173 -392 -407 -730 -707 -1021 -250 -242 -489 -409
-794 -556 -289 -139 -575 -228 -885 -275 -142 -22 -592 -26 -740 -6 -518 70
-976 254 -1406 567 -162 118 -449 400 -570 560 -576 760 -774 1672 -564 2604
205 913 829 1700 1663 2096 452 215 977 311 1497 275z"/>
<path d="M4625 9669 c-475 -32 -857 -153 -1301 -411 -251 -146 -500 -368 -758
-675 -223 -267 -418 -643 -531 -1026 -83 -285 -107 -473 -109 -852 -1 -261 1
-304 22 -429 130 -767 476 -1373 1057 -1847 305 -249 699 -443 1084 -534 231
-54 329 -67 537 -72 564 -14 928 65 1409 304 502 251 958 692 1241 1203 185
335 313 727 355 1090 16 136 16 586 0 716 -92 775 -507 1508 -1107 1958 -468
350 -966 537 -1536 576 -158 11 -201 11 -363 -1z m405 -139 c534 -42 1051
-244 1470 -576 116 -93 340 -319 430 -434 305 -394 498 -837 572 -1312 30
-195 33 -659 5 -838 -69 -436 -234 -853 -489 -1234 -104 -154 -409 -478 -573
-607 -285 -225 -666 -414 -1021 -505 -225 -57 -388 -77 -634 -78 -395 0 -653
48 -1015 191 -163 65 -224 94 -360 176 -460 275 -823 669 -1060 1152 -147 299
-222 538 -277 890 -17 109 -17 611 0 730 72 504 260 967 551 1354 307 410 695
707 1180 906 199 82 435 142 686 175 160 21 350 24 535 10z"/>
<path d="M4620 9393 c-90 -7 -358 -55 -467 -84 -305 -78 -631 -236 -873 -423
-484 -374 -786 -813 -971 -1411 -74 -240 -103 -453 -103 -755 0 -412 56 -696
209 -1065 137 -329 311 -583 587 -857 370 -367 833 -604 1353 -693 429 -73
879 -32 1290 117 156 56 409 183 550 275 66 44 174 124 240 180 113 94 315
294 315 311 0 5 24 33 54 63 119 123 323 473 419 719 87 222 151 485 177 727
18 166 8 554 -19 709 -120 699 -510 1331 -1061 1721 -341 241 -781 409 -1196
458 -117 14 -382 18 -504 8z m476 -144 c366 -35 742 -161 1047 -350 283 -176
572 -461 761 -751 375 -576 501 -1341 330 -2008 -158 -616 -503 -1123 -1009
-1485 -503 -359 -1156 -524 -1735 -440 -273 40 -476 104 -745 235 -726 351
-1228 1046 -1362 1883 -25 156 -25 633 0 786 100 615 447 1220 910 1589 397
317 838 497 1337 545 84 9 366 6 466 -4z"/>
<path d="M4739 9119 c-465 -27 -905 -189 -1279 -472 -125 -95 -356 -327 -451
-452 -212 -283 -365 -616 -443 -965 -34 -154 -45 -256 -52 -505 -6 -186 -4
-227 15 -355 23 -150 63 -320 85 -355 7 -11 13 -35 14 -54 3 -47 54 -172 137
-336 91 -180 169 -305 265 -424 99 -123 258 -291 275 -291 8 0 18 -6 22 -14
23 -41 286 -230 423 -304 206 -111 465 -198 727 -242 138 -24 496 -29 648 -10
162 20 439 96 600 165 325 138 649 376 880 647 416 486 613 1050 592 1693 -12
358 -86 659 -242 980 -111 228 -235 403 -420 593 -203 210 -373 336 -617 457
-221 110 -423 177 -639 214 -102 18 -162 24 -349 35 -30 2 -116 0 -191 -5z
m531 -163 c523 -97 964 -349 1309 -750 189 -219 364 -547 445 -833 97 -340
112 -739 41 -1090 -45 -222 -138 -475 -246 -666 -319 -566 -841 -962 -1474
-1118 -142 -35 -421 -55 -626 -45 -335 17 -724 148 -1024 346 -143 95 -183
127 -349 289 -197 194 -297 330 -417 572 -165 331 -233 592 -246 939 -15 428
53 749 242 1147 87 183 214 362 400 560 337 362 875 624 1365 664 145 11 482
3 580 -15z"/>
<path d="M4775 8834 c-16 -2 -70 -9 -120 -15 -114 -14 -323 -67 -440 -112
-768 -294 -1290 -998 -1366 -1842 -63 -700 253 -1431 806 -1862 271 -212 594
-349 972 -413 113 -20 152 -22 328 -17 246 7 358 26 572 96 462 152 863 460
1136 869 158 238 284 574 333 892 22 142 25 475 5 594 -68 408 -218 759 -447
1041 -327 405 -750 655 -1264 746 -110 20 -434 34 -515 23z m499 -160 c306
-45 602 -166 848 -344 145 -105 392 -368 498 -530 59 -92 162 -308 200 -420
81 -246 100 -371 100 -674 0 -222 -10 -315 -50 -470 -198 -769 -770 -1328
-1535 -1503 -113 -25 -134 -27 -370 -28 -262 0 -301 4 -483 52 -494 128 -919
450 -1182 895 -184 312 -268 611 -277 993 -7 268 21 459 103 704 39 116 164
366 242 482 291 432 759 740 1267 835 172 31 460 35 639 8z m-1934 -643 c0 -6
-4 -13 -10 -16 -5 -3 -10 1 -10 9 0 9 5 16 10 16 6 0 10 -4 10 -9z"/>
<path d="M4790 8535 c-279 -40 -543 -141 -776 -296 -142 -94 -391 -341 -480
-474 -149 -222 -264 -489 -311 -721 -15 -73 -18 -139 -18 -374 0 -299 2 -316
52 -495 55 -195 168 -439 271 -585 242 -344 584 -589 977 -701 237 -69 434
-85 701 -58 348 35 711 201 999 457 294 261 481 569 580 956 45 175 59 327 52
551 -6 208 -25 320 -86 504 -210 636 -745 1107 -1396 1227 -123 22 -439 27
-565 9z m641 -159 c247 -56 555 -208 737 -364 80 -70 248 -257 301 -337 274
-409 367 -930 250 -1396 -152 -603 -581 -1070 -1159 -1263 -187 -62 -249 -71
-495 -71 -188 1 -236 4 -327 23 -670 139 -1166 633 -1324 1318 -50 220 -45
581 12 800 166 641 636 1115 1262 1275 46 11 114 25 150 29 104 13 515 3 593
-14z"/>
<path d="M4945 8245 c-379 -62 -651 -200 -915 -465 -143 -142 -231 -266 -309
-432 -110 -231 -142 -373 -149 -642 -7 -328 25 -487 155 -765 99 -212 221
-370 401 -522 163 -137 271 -199 477 -274 198 -72 247 -80 495 -80 199 0 237
3 329 23 354 80 645 262 909 572 106 125 216 331 280 525 65 197 67 213 66
500 -1 257 -1 261 -31 375 -83 314 -217 546 -435 755 -236 227 -457 344 -773
410 -155 33 -370 41 -500 20z m588 -179 c200 -47 393 -139 542 -257 146 -116
330 -341 404 -494 111 -230 164 -517 141 -767 -34 -371 -166 -665 -417 -929
-188 -197 -431 -336 -712 -407 -96 -24 -124 -26 -296 -27 -144 0 -211 5 -280
18 -132 27 -259 70 -369 126 -512 261 -827 840 -776 1430 29 351 163 649 404
899 132 137 243 219 401 297 238 117 375 146 655 141 165 -4 212 -8 303 -30z"/>
<path d="M5106 7949 c-294 -40 -584 -190 -785 -405 -134 -143 -253 -348 -316
-544 -33 -100 -44 -276 -34 -525 5 -134 9 -160 38 -245 86 -249 231 -476 399
-620 159 -137 393 -255 587 -295 82 -17 323 -23 430 -10 319 36 656 239 871
524 86 114 185 316 224 456 69 248 52 610 -40 846 -160 408 -518 712 -950 805
-89 19 -327 27 -424 13z m427 -154 c241 -42 438 -140 610 -304 337 -320 453
-798 306 -1251 -57 -174 -124 -290 -250 -430 -152 -168 -310 -274 -507 -341
-121 -41 -234 -59 -372 -59 -279 0 -533 96 -746 282 -191 167 -329 402 -390
667 -25 104 -21 369 6 500 50 247 158 441 344 619 177 170 413 288 641 321 97
14 266 12 358 -4z"/>
<path d="M5265 7646 c-402 -67 -716 -340 -844 -733 -41 -125 -55 -237 -48
-384 19 -442 297 -815 710 -953 108 -36 181 -46 327 -46 107 0 142 5 240 30
317 83 547 272 697 575 83 167 104 261 104 480 -1 138 -4 175 -26 260 -89 358
-397 670 -746 755 -109 27 -305 34 -414 16z m448 -162 c201 -46 394 -173 519
-342 160 -216 218 -524 148 -797 -26 -101 -96 -249 -161 -336 -51 -69 -238
-249 -258 -249 -6 0 -55 -19 -109 -42 -121 -52 -186 -66 -332 -74 -359 -20
-681 176 -844 517 -70 145 -89 227 -90 399 0 121 4 160 23 235 60 235 194 426
384 549 226 147 475 195 720 140z"/>
<path d="M5445 7335 c-174 -32 -281 -89 -405 -215 -75 -75 -105 -114 -142
-185 -74 -142 -93 -222 -92 -395 0 -151 5 -183 51 -300 117 -295 444 -507 753
-487 198 13 351 81 499 221 113 108 181 220 227 373 23 75 27 106 27 213 -1
258 -86 439 -293 624 -153 137 -391 195 -625 151z m405 -157 c125 -30 255
-114 335 -216 87 -111 131 -233 141 -392 8 -124 -11 -212 -73 -338 -81 -166
-221 -284 -413 -348 -70 -23 -228 -24 -320 0 -216 55 -384 210 -460 426 -32
89 -39 259 -15 365 60 271 273 470 550 516 59 9 190 3 255 -13z"/>
<path d="M5735 7039 c-123 -12 -234 -65 -326 -158 -166 -167 -206 -407 -103
-620 39 -80 161 -199 244 -238 203 -96 426 -57 585 102 167 167 211 422 109
632 -93 192 -294 304 -509 282z m274 -175 c25 -8 73 -32 107 -55 56 -36 66
-49 106 -126 43 -85 43 -86 43 -192 0 -100 -2 -110 -33 -174 -41 -82 -124
-170 -189 -199 -37 -17 -73 -23 -155 -26 -98 -4 -111 -2 -162 21 -65 30 -145
102 -180 161 -72 124 -73 288 0 412 31 53 118 134 171 159 87 43 197 50 292
19z"/>
<path d="M5932 6718 c-45 -8 -61 -18 -106 -64 -71 -71 -90 -113 -90 -194 1
-82 29 -146 91 -200 56 -49 99 -63 178 -58 52 3 73 10 117 40 148 98 171 279
52 402 -67 69 -144 92 -242 74z m225 -168 c89 -54 94 -170 8 -226 -28 -19
-103 -21 -135 -4 -26 14 -60 81 -60 118 0 39 38 93 80 114 45 23 67 22 107 -2z"/>
<path d="M994 9818 c-38 -64 -38 -65 -10 -35 14 15 26 32 26 38 0 13 -7 11
-16 -3z"/>
<path d="M936 9725 c-9 -26 -7 -32 5 -12 6 10 9 21 6 23 -2 3 -7 -2 -11 -11z"/>
<path d="M897 9663 c-4 -3 -7 -13 -7 -22 1 -13 3 -13 11 2 11 19 8 33 -4 20z"/>
<path d="M856 9594 c-10 -25 1 -29 14 -5 6 12 7 21 1 21 -5 0 -12 -7 -15 -16z"/>
<path d="M757 9404 c-26 -53 -44 -93 -39 -90 11 7 96 176 90 181 -2 2 -25 -39
-51 -91z"/>
<path d="M606 9104 c-4 -9 -4 -19 -1 -22 2 -3 7 3 11 12 4 9 4 19 1 22 -2 3
-7 -3 -11 -12z"/>
<path d="M532 8945 c-7 -15 -11 -30 -8 -32 7 -7 28 36 24 49 -2 6 -9 -2 -16
-17z"/>
<path d="M486 8825 c-9 -26 -7 -32 5 -12 6 10 9 21 6 23 -2 3 -7 -2 -11 -11z"/>
<path d="M2 6290 c0 -14 2 -19 5 -12 2 6 2 18 0 25 -3 6 -5 1 -5 -13z"/>
<path d="M11 6014 c0 -11 3 -14 6 -6 3 7 2 16 -1 19 -3 4 -6 -2 -5 -13z"/>
</g>
</svg>
